<svg xmlns="http://www.w3.org/2000/svg" width="18.37" height="18.37" viewBox="0 0 18.37 18.37">
  <path id="Icon_awesome-facebook-square" data-name="Icon awesome-facebook-square" d="M16.4,2.25H1.968A1.968,1.968,0,0,0,0,4.218V18.652A1.968,1.968,0,0,0,1.968,20.62H7.6V14.375H5.013v-2.94H7.6V9.195a3.588,3.588,0,0,1,3.841-3.956,15.65,15.65,0,0,1,2.277.2v2.5H12.431a1.47,1.47,0,0,0-1.657,1.588v1.909h2.82l-.451,2.94H10.774V20.62H16.4a1.968,1.968,0,0,0,1.968-1.968V4.218A1.968,1.968,0,0,0,16.4,2.25Z" transform="translate(0 -2.25)" fill="#4867aa"/>
</svg>
