<svg xmlns="http://www.w3.org/2000/svg" xmlns:xlink="http://www.w3.org/1999/xlink" width="153" height="121" viewBox="0 0 153 121">
  <defs>
    <clipPath id="clip-path">
      <rect id="Rectangle_4311" data-name="Rectangle 4311" width="153" height="121" transform="translate(-2034 -3806)" fill="#fff" stroke="#707070" stroke-width="1"/>
    </clipPath>
  </defs>
  <g id="Mask_Group_46" data-name="Mask Group 46" transform="translate(2034 3806)" clip-path="url(#clip-path)">
    <g id="Group_4937" data-name="Group 4937" transform="translate(-2033.96 -3805.969)">
      <path id="Path_28094" data-name="Path 28094" d="M-1260.482,3373.186s-3.966,44.265-28.831,41.913-43.2.643-46.17,20.03-18.183,31.661-39.041,26.819-39.037,31.912-39.037,31.912V3373.186Z" transform="translate(1413.561 -3373.186)" fill="#f79432"/>
    </g>
    <g id="Group_4938" data-name="Group 4938" transform="translate(-2036.53 -3810.339)">
      <path id="Path_28095" data-name="Path 28095" d="M-1260.482,3373.186s-3.966,44.265-28.831,41.913-43.2.643-46.17,20.03-18.183,31.661-39.041,26.819-39.037,31.912-39.037,31.912V3373.186Z" transform="translate(1413.561 -3373.186)" fill="#f79432" stroke="#fff" stroke-width="1"/>
    </g>
    <g id="Group_4939" data-name="Group 4939" transform="translate(-2040.129 -3815.994)">
      <path id="Path_28096" data-name="Path 28096" d="M-1260.482,3373.186s-3.966,44.265-28.831,41.913-43.2.643-46.17,20.03-18.183,31.661-39.041,26.819-39.037,31.912-39.037,31.912V3373.186Z" transform="translate(1413.561 -3373.186)" fill="#f79432" stroke="#fff" stroke-width="1"/>
    </g>
    <g id="Group_4940" data-name="Group 4940" transform="translate(-2042.957 -3820.364)">
      <path id="Path_28097" data-name="Path 28097" d="M-1260.482,3373.186s-3.966,44.265-28.831,41.913-43.2.643-46.17,20.03-18.183,31.661-39.041,26.819-39.037,31.912-39.037,31.912V3373.186Z" transform="translate(1413.561 -3373.186)" fill="#f79432" stroke="#fff" stroke-width="1"/>
    </g>
    <g id="Group_4941" data-name="Group 4941" transform="translate(-2046.555 -3823.963)">
      <path id="Path_28098" data-name="Path 28098" d="M-1260.482,3373.186s-3.966,44.265-28.831,41.913-43.2.643-46.17,20.03-18.183,31.661-39.041,26.819-39.037,31.912-39.037,31.912V3373.186Z" transform="translate(1413.561 -3373.186)" fill="#f79432" stroke="#fff" stroke-width="1"/>
    </g>
    <g id="Group_4942" data-name="Group 4942" transform="translate(-2050.154 -3827.819)">
      <path id="Path_28099" data-name="Path 28099" d="M-1260.482,3373.186s-3.966,44.265-28.831,41.913-43.2.643-46.17,20.03-18.183,31.661-39.041,26.819-39.037,31.912-39.037,31.912V3373.186Z" transform="translate(1413.561 -3373.186)" fill="#f79432" stroke="#fff" stroke-width="1"/>
    </g>
    <g id="Group_4943" data-name="Group 4943" transform="translate(-2053.753 -3832.189)">
      <path id="Path_28100" data-name="Path 28100" d="M-1260.482,3373.186s-3.966,44.265-28.831,41.913-43.2.643-46.17,20.03-18.183,31.661-39.041,26.819-39.037,31.912-39.037,31.912V3373.186Z" transform="translate(1413.561 -3373.186)" fill="#f79432" stroke="#fff" stroke-width="1"/>
    </g>
    <g id="Group_4944" data-name="Group 4944" transform="translate(-2056.837 -3837.073)">
      <path id="Path_28101" data-name="Path 28101" d="M-1260.482,3373.186s-3.966,44.265-28.831,41.913-43.2.643-46.17,20.03-18.183,31.661-39.041,26.819-39.037,31.912-39.037,31.912V3373.186Z" transform="translate(1413.561 -3373.186)" fill="#f79432" stroke="#fff" stroke-width="1"/>
    </g>
  </g>
</svg>
