<svg xmlns="http://www.w3.org/2000/svg" xmlns:xlink="http://www.w3.org/1999/xlink" width="153" height="121" viewBox="0 0 153 121">
  <defs>
    <clipPath id="clip-path">
      <rect id="Rectangle_4312" data-name="Rectangle 4312" width="153" height="121" transform="translate(-1930.858 -3832.598)" fill="#fff" stroke="#707070" stroke-width="1"/>
    </clipPath>
  </defs>
  <g id="Mask_Group_47" data-name="Mask Group 47" transform="translate(1930.858 3832.598)" clip-path="url(#clip-path)">
    <g id="Group_4945" data-name="Group 4945" transform="translate(-1931.464 -3832.403)">
      <path id="Path_28102" data-name="Path 28102" d="M-1413.561,3494.175s3.976-44.382,28.907-42.022,43.313-.645,46.291-20.082,18.231-31.744,39.143-26.89,39.14-31.995,39.14-31.995v120.99Z" transform="translate(1413.561 -3373.186)" fill="#118407"/>
    </g>
    <g id="Group_4946" data-name="Group 4946" transform="translate(-1928.886 -3828.022)">
      <path id="Path_28103" data-name="Path 28103" d="M-1413.561,3494.175s3.976-44.382,28.907-42.022,43.313-.645,46.291-20.082,18.231-31.744,39.143-26.89,39.14-31.995,39.14-31.995v120.99Z" transform="translate(1413.561 -3373.186)" fill="#118407" stroke="#fff" stroke-width="1"/>
    </g>
    <g id="Group_4947" data-name="Group 4947" transform="translate(-1925.278 -3822.352)">
      <path id="Path_28104" data-name="Path 28104" d="M-1413.561,3494.175s3.976-44.382,28.907-42.022,43.313-.645,46.291-20.082,18.231-31.744,39.143-26.89,39.14-31.995,39.14-31.995v120.99Z" transform="translate(1413.561 -3373.186)" fill="#118407" stroke="#fff" stroke-width="1"/>
    </g>
    <g id="Group_4948" data-name="Group 4948" transform="translate(-1922.443 -3817.971)">
      <path id="Path_28105" data-name="Path 28105" d="M-1413.561,3494.175s3.976-44.382,28.907-42.022,43.313-.645,46.291-20.082,18.231-31.744,39.143-26.89,39.14-31.995,39.14-31.995v120.99Z" transform="translate(1413.561 -3373.186)" fill="#118407" stroke="#fff" stroke-width="1"/>
    </g>
    <g id="Group_4949" data-name="Group 4949" transform="translate(-1918.835 -3814.362)">
      <path id="Path_28106" data-name="Path 28106" d="M-1413.561,3494.175s3.976-44.382,28.907-42.022,43.313-.645,46.291-20.082,18.231-31.744,39.143-26.89,39.14-31.995,39.14-31.995v120.99Z" transform="translate(1413.561 -3373.186)" fill="#118407" stroke="#fff" stroke-width="1"/>
    </g>
    <g id="Group_4950" data-name="Group 4950" transform="translate(-1915.227 -3810.497)">
      <path id="Path_28107" data-name="Path 28107" d="M-1413.561,3494.175s3.976-44.382,28.907-42.022,43.313-.645,46.291-20.082,18.231-31.744,39.143-26.89,39.14-31.995,39.14-31.995v120.99Z" transform="translate(1413.561 -3373.186)" fill="#118407" stroke="#fff" stroke-width="1"/>
    </g>
    <g id="Group_4951" data-name="Group 4951" transform="translate(-1911.618 -3806.115)">
      <path id="Path_28108" data-name="Path 28108" d="M-1413.561,3494.175s3.976-44.382,28.907-42.022,43.313-.645,46.291-20.082,18.231-31.744,39.143-26.89,39.14-31.995,39.14-31.995v120.99Z" transform="translate(1413.561 -3373.186)" fill="#118407" stroke="#fff" stroke-width="1"/>
    </g>
    <g id="Group_4952" data-name="Group 4952" transform="translate(-1908.526 -3801.218)">
      <path id="Path_28109" data-name="Path 28109" d="M-1413.561,3494.175s3.976-44.382,28.907-42.022,43.313-.645,46.291-20.082,18.231-31.744,39.143-26.89,39.14-31.995,39.14-31.995v120.99Z" transform="translate(1413.561 -3373.186)" fill="#118407" stroke="#fff" stroke-width="1"/>
    </g>
  </g>
</svg>
