<svg xmlns="http://www.w3.org/2000/svg" width="30.563" height="29.16" viewBox="0 0 30.563 29.16">
  <g id="Icon_feather-linkedin" data-name="Icon feather-linkedin" transform="translate(1.25 1.25)">
    <path id="Path_26" data-name="Path 26" d="M23.419,12a8.419,8.419,0,0,1,8.419,8.419v9.822H26.225V20.419a2.806,2.806,0,0,0-5.613,0v9.822H15V20.419A8.419,8.419,0,0,1,23.419,12Z" transform="translate(-3.775 -3.581)" fill="none" stroke="#414141" stroke-linecap="round" stroke-linejoin="round" stroke-width="2.5"/>
    <path id="Path_27" data-name="Path 27" d="M3,13.5H8.613V30.338H3Z" transform="translate(-3 -3.678)" fill="none" stroke="#414141" stroke-linecap="round" stroke-linejoin="round" stroke-width="2.5"/>
    <path id="Path_28" data-name="Path 28" d="M8.613,5.806A2.806,2.806,0,1,1,5.806,3,2.806,2.806,0,0,1,8.613,5.806Z" transform="translate(-3 -3)" fill="none" stroke="#414141" stroke-linecap="round" stroke-linejoin="round" stroke-width="2.5"/>
  </g>
</svg>
