<svg xmlns="http://www.w3.org/2000/svg" width="16.051" height="16.05" viewBox="0 0 16.051 16.05">
  <path id="Icon_ionic-ios-call" data-name="Icon ionic-ios-call" d="M20.077,17.07a13.482,13.482,0,0,0-2.816-1.884c-.844-.405-1.153-.4-1.751.033-.5.359-.819.694-1.391.568a8.3,8.3,0,0,1-2.8-2.068,8.241,8.241,0,0,1-2.068-2.8c-.121-.577.213-.894.568-1.391.43-.6.443-.907.033-1.751A13.215,13.215,0,0,0,7.972,4.965c-.614-.614-.752-.481-1.091-.359a6.206,6.206,0,0,0-1,.531A3.013,3.013,0,0,0,4.684,6.4c-.238.514-.514,1.471.89,3.97a22.15,22.15,0,0,0,3.894,5.194h0l0,0,0,0h0a22.236,22.236,0,0,0,5.194,3.894c2.5,1.4,3.456,1.128,3.97.89a2.961,2.961,0,0,0,1.266-1.2,6.206,6.206,0,0,0,.531-1C20.558,17.822,20.7,17.684,20.077,17.07Z" transform="translate(-4.49 -4.502)"/>
</svg>
