<svg xmlns="http://www.w3.org/2000/svg" width="33.142" height="33.141" viewBox="0 0 33.142 33.141">
  <path id="Icon_ionic-ios-call" data-name="Icon ionic-ios-call" d="M34.341,28.57a25.819,25.819,0,0,0-5.393-3.609c-1.616-.776-2.209-.76-3.353.064-.952.688-1.568,1.328-2.665,1.088s-3.257-1.872-5.353-3.961S13.848,17.9,13.616,16.8s.408-1.712,1.088-2.665c.824-1.144.848-1.736.064-3.353a25.308,25.308,0,0,0-3.609-5.393c-1.176-1.176-1.44-.92-2.089-.688A11.885,11.885,0,0,0,7.158,5.716a5.769,5.769,0,0,0-2.3,2.425c-.456.984-.984,2.817,1.7,7.6a42.419,42.419,0,0,0,7.458,9.947h0l.008.008.008.008h0a42.584,42.584,0,0,0,9.947,7.458c4.785,2.689,6.618,2.161,7.6,1.7a5.671,5.671,0,0,0,2.425-2.3,11.885,11.885,0,0,0,1.016-1.913C35.262,30.01,35.526,29.746,34.341,28.57Z" transform="translate(-3.286 -3.305)" fill="none" stroke="#000" stroke-width="2.5"/>
</svg>
